<svg width="144" height="161" viewBox="0 0 144 161" fill="none"
    xmlns="http://www.w3.org/2000/svg">
    <path fill-rule="evenodd" clip-rule="evenodd" d="M110.781 157.224L102.465 150.024L105.083 147L113.4 154.2L110.781 157.224Z" fill="#111111"/>
    <path fill-rule="evenodd" clip-rule="evenodd" d="M117.781 149.224L109.465 142.024L112.083 139L120.4 146.2L117.781 149.224Z" fill="#111111"/>
    <path fill-rule="evenodd" clip-rule="evenodd" d="M124.781 141.224L116.465 134.024L119.083 131L127.4 138.2L124.781 141.224Z" fill="#111111"/>
    <path fill-rule="evenodd" clip-rule="evenodd" d="M118.781 10.2239L110.465 3.02419L113.083 0L121.4 7.19968L118.781 10.2239Z" fill="#111111"/>
    <circle cx="9.96484" cy="34.5" r="4.5" stroke="#111111" stroke-width="2"/>
    <circle cx="106.965" cy="15.5" r="4.5" stroke="#111111" stroke-width="2"/>
    <path d="M111.965 36.5L59.5 29.5M111.965 36.5L142.465 113M111.965 36.5L72.5 99L142.465 113M111.965 36.5L46.9648 66L59.5 29.5M59.5 29.5L2 101.5M2 101.5L36 159.5M2 101.5L46.9648 106.5L36 159.5M36 159.5L142.465 113" stroke="#111111" stroke-width="2"/>
    <rect x="24" y="51" width="87" height="67" fill="#9D70F9"/>
    <rect x="24" y="51" width="87" height="8" fill="#FF5656"/>
    <circle cx="100.116" cy="55.3574" r="1.17869" fill="white"/>
    <circle cx="103.651" cy="55.3574" r="1.17869" fill="#F5F6F9"/>
    <circle cx="107.188" cy="55.3574" r="1.17869" fill="white"/>
    <g clip-path="url(#clip0_121_596)">
        <path d="M90.5 84.915C90.4345 82.2366 89.7688 79.7643 88.3827 77.4546C87.6623 76.2509 86.8111 75.069 85.8397 74.0388C85.6651 73.8545 85.1849 73.4207 85.1849 73.4207L84.9557 67.5652L78.44 69.1917C78.44 69.1917 77.043 68.6712 76.3117 68.4652C75.6678 68.2917 75.0348 68.1507 74.3799 68.0423C74.2162 68.0098 73.5068 67.9339 73.5068 67.9339L71.3022 65.4398L68.8902 63L66.7729 65.2772L63.9679 68.5086C63.9679 68.5086 62.7674 68.8339 62.3854 68.964C61.1521 69.3544 59.897 69.9725 58.8056 70.6448C58.6091 70.764 58.0634 71.0677 58.0634 71.0677L47.6733 71.4472C47.6733 71.4472 50.2817 80.9028 50.3581 81.2282C50.4345 81.5968 49.9761 82.421 49.867 82.8005C49.6487 83.5595 49.4413 84.3294 49.2776 85.0993C49.1685 85.6198 48.852 86.8777 48.852 86.8777L42.5 94.1212L51.5805 99.1093C51.5805 99.1093 52.148 99.9985 52.3445 100.291C52.7483 100.899 53.163 101.495 53.6432 102.048C54.0034 102.46 54.7128 103.501 54.7128 103.501L54.8875 110.918L63.7278 108.587C63.7278 108.587 65.0593 108.966 65.4959 109.075C66.8929 109.422 68.3881 109.606 69.8288 109.628C70.189 109.628 70.9202 109.628 70.9202 109.628L77.5014 113.011L79.8588 107.079C79.8588 107.079 80.2408 106.808 80.972 106.266C82.1508 105.388 83.1876 104.379 84.0935 103.241C84.2899 103.002 84.9775 101.929 85.0212 101.907C85.1958 101.82 90.3472 100.074 90.3472 100.074L87.4877 95.1622C87.4877 95.1622 87.4659 95.0972 87.4441 94.6743C87.4222 94.1971 87.4441 93.72 87.4441 93.2537C87.4441 92.0826 87.4659 90.9983 87.1276 89.8597C85.5559 84.6005 80.8302 80.5992 75.0457 80.3607C73.2667 80.2848 71.5205 80.404 69.8834 81.1306C67.3622 82.2475 65.2667 84.2644 64.3608 86.8018C63.6078 88.9163 63.455 91.4103 64.4482 93.4815C65.5505 95.7912 67.6896 97.4611 70.3417 97.7972C71.8697 97.9924 73.2885 97.8623 74.4782 96.9623C74.7619 96.7562 75.3404 96.1381 75.3404 96.1381C75.3404 96.1381 74.7401 96.2466 74.3036 96.3116C73.5614 96.4201 72.9066 96.4201 72.1644 96.4201C70.1999 96.4201 68.3881 95.3574 67.4059 93.72C66.2381 91.779 66.5437 89.5452 67.7551 87.691C69.0211 85.7608 71.0075 84.6439 73.3649 84.6439C78.4072 84.6439 82.4345 89.3717 81.8233 94.0995C81.1248 99.5214 76.1044 103.685 70.4727 103.685C63.193 103.685 55.7169 97.5261 55.6733 90.2501C55.6296 84.08 58.369 77.1076 64.7865 74.7328C66.9366 73.9521 69.1194 73.4099 71.2694 73.4099C74.2381 73.4099 76.912 73.7894 79.6405 74.9822C81.7469 75.9039 83.4277 77.2594 85.0102 78.8426C86.6146 80.4474 87.8915 82.4209 88.8411 84.4379C89.0812 84.9584 89.4304 85.6632 89.616 86.0644C89.9325 86.7367 90.2162 87.8428 90.2162 87.8428C90.2162 87.8428 90.5546 85.9777 90.5 84.915Z" fill="white"/>
    </g>
    <defs>
        <clipPath id="clip0_121_596">
            <rect width="48" height="50" fill="white" transform="translate(42.5 63)"/>
        </clipPath>
    </defs>
</svg>
