<svg width="127" height="126" viewBox="0 0 127 126" fill="none" xmlns="http://www.w3.org/2000/svg">
    <path
        d="M27 50L1.5 68.5L38 124.5M27 50L41.5 44.5L52.9665 39L68.5569 36M27 50L38 124.5M38 124.5H86.5L107.5 80M38 124.5L107.5 80M38 124.5L68.5569 36M107.5 80L68.5569 36"
        stroke="#111111" stroke-width="2" />
    <circle cx="121.5" cy="117.5" r="4.5" stroke="#111111" stroke-width="2" />
    <path fill-rule="evenodd" clip-rule="evenodd" d="M90.3809 13V2L94.3809 2V13H90.3809Z" fill="#111111" />
    <path fill-rule="evenodd" clip-rule="evenodd" d="M104 13V2L108 2V13H104Z" fill="#111111" />
    <circle cx="78.6951" cy="7.69493" r="4.5" transform="rotate(53.3902 78.6951 7.69493)" stroke="#111111"
        stroke-width="2" />
    <rect x="23" y="30" width="78.0361" height="57.8978" fill="#9D70F9" />
    <rect x="23" y="35.0345" width="78.0361" height="0.629324" fill="white" />
    <circle cx="91.5467" cy="32.7384" r="1.05454" fill="white" />
    <circle cx="94.7088" cy="32.7384" r="1.05454" fill="white" />
    <circle cx="97.8729" cy="32.7384" r="1.05454" fill="white" />
    <path d="M44.6738 56.8091V46.7127H43L43.6732 44.2335H47.1845V56.8091H44.6738Z" fill="white" />
    <path
        d="M55.9829 57.0427C55.2491 57.0427 54.579 56.875 53.9726 56.5396C53.3661 56.1983 52.8385 55.7282 52.3898 55.1294C51.9471 54.5305 51.6044 53.8389 51.3618 53.0544C51.1193 52.2639 50.998 51.4196 50.998 50.5213C50.998 49.6231 51.1193 48.7817 51.3618 47.9972C51.6044 47.2068 51.9471 46.5121 52.3898 45.9133C52.8385 45.3144 53.3661 44.8474 53.9726 44.512C54.579 44.1707 55.2491 44 55.9829 44C56.7167 44 57.3869 44.1707 57.9933 44.512C58.5998 44.8474 59.1213 45.3144 59.5579 45.9133C60.0006 46.5121 60.3433 47.2068 60.5859 47.9972C60.8284 48.7817 60.9497 49.6231 60.9497 50.5213C60.9497 51.4196 60.8284 52.2639 60.5859 53.0544C60.3433 53.8389 60.0006 54.5305 59.5579 55.1294C59.1213 55.7282 58.5998 56.1983 57.9933 56.5396C57.3869 56.875 56.7167 57.0427 55.9829 57.0427ZM55.9829 54.5635C56.5833 54.5635 57.0776 54.3719 57.4657 53.9886C57.8538 53.6053 58.1389 53.1053 58.3208 52.4885C58.5088 51.8717 58.6028 51.216 58.6028 50.5213C58.6028 49.7848 58.5027 49.1111 58.3026 48.5003C58.1085 47.8894 57.8174 47.4014 57.4293 47.0361C57.0412 46.6648 56.5591 46.4792 55.9829 46.4792C55.5281 46.4792 55.1339 46.59 54.8004 46.8115C54.4729 47.0331 54.2 47.3355 53.9817 47.7188C53.7694 48.102 53.6087 48.5362 53.4996 49.0212C53.3965 49.5003 53.3449 50.0003 53.3449 50.5213C53.3449 51.216 53.4389 51.8717 53.6269 52.4885C53.821 53.0993 54.1121 53.5994 54.5002 53.9886C54.8944 54.3719 55.3886 54.5635 55.9829 54.5635Z"
        fill="white" />
    <path d="M65.7241 56.8091V46.7127H64.0503L64.7234 44.2335H68.2347V56.8091H65.7241Z" fill="white" />
    <path
        d="M77.0332 57.0427C76.2994 57.0427 75.6293 56.875 75.0229 56.5396C74.4164 56.1983 73.8888 55.7282 73.44 55.1294C72.9973 54.5305 72.6547 53.8389 72.4121 53.0544C72.1695 52.2639 72.0482 51.4196 72.0482 50.5213C72.0482 49.6231 72.1695 48.7817 72.4121 47.9972C72.6547 47.2068 72.9973 46.5121 73.44 45.9133C73.8888 45.3144 74.4164 44.8474 75.0229 44.512C75.6293 44.1707 76.2994 44 77.0332 44C77.767 44 78.4371 44.1707 79.0436 44.512C79.65 44.8474 80.1716 45.3144 80.6082 45.9133C81.0509 46.5121 81.3936 47.2068 81.6361 47.9972C81.8787 48.7817 82 49.6231 82 50.5213C82 51.4196 81.8787 52.2639 81.6361 53.0544C81.3936 53.8389 81.0509 54.5305 80.6082 55.1294C80.1716 55.7282 79.65 56.1983 79.0436 56.5396C78.4371 56.875 77.767 57.0427 77.0332 57.0427ZM77.0332 54.5635C77.6336 54.5635 78.1278 54.3719 78.516 53.9886C78.9041 53.6053 79.1891 53.1053 79.3711 52.4885C79.5591 51.8717 79.6531 51.216 79.6531 50.5213C79.6531 49.7848 79.553 49.1111 79.3529 48.5003C79.1588 47.8894 78.8677 47.4014 78.4796 47.0361C78.0915 46.6648 77.6093 46.4792 77.0332 46.4792C76.5784 46.4792 76.1842 46.59 75.8506 46.8115C75.5232 47.0331 75.2503 47.3355 75.0319 47.7188C74.8197 48.102 74.659 48.5362 74.5498 49.0212C74.4467 49.5003 74.3952 50.0003 74.3952 50.5213C74.3952 51.216 74.4892 51.8717 74.6772 52.4885C74.8712 53.0993 75.1623 53.5994 75.5505 53.9886C75.9446 54.3719 76.4389 54.5635 77.0332 54.5635Z"
        fill="white" />
    <path d="M44.6738 78.7665V68.6701H43L43.6732 66.1909H47.1845V78.7665H44.6738Z" fill="white" />
    <path
        d="M55.9829 79C55.2491 79 54.579 78.8323 53.9726 78.497C53.3661 78.1556 52.8385 77.6856 52.3898 77.0867C51.9471 76.4879 51.6044 75.7962 51.3618 75.0117C51.1193 74.2213 50.998 73.3769 50.998 72.4787C50.998 71.5804 51.1193 70.739 51.3618 69.9546C51.6044 69.1641 51.9471 68.4695 52.3898 67.8706C52.8385 67.2718 53.3661 66.8047 53.9726 66.4693C54.579 66.128 55.2491 65.9573 55.9829 65.9573C56.7167 65.9573 57.3869 66.128 57.9933 66.4693C58.5998 66.8047 59.1213 67.2718 59.5579 67.8706C60.0006 68.4695 60.3433 69.1641 60.5859 69.9546C60.8284 70.739 60.9497 71.5804 60.9497 72.4787C60.9497 73.3769 60.8284 74.2213 60.5859 75.0117C60.3433 75.7962 60.0006 76.4879 59.5579 77.0867C59.1213 77.6856 58.5998 78.1556 57.9933 78.497C57.3869 78.8323 56.7167 79 55.9829 79ZM55.9829 76.5208C56.5833 76.5208 57.0776 76.3292 57.4657 75.9459C57.8538 75.5627 58.1389 75.0627 58.3208 74.4459C58.5088 73.829 58.6028 73.1733 58.6028 72.4787C58.6028 71.7421 58.5027 71.0684 58.3026 70.4576C58.1085 69.8468 57.8174 69.3587 57.4293 68.9934C57.0412 68.6222 56.5591 68.4365 55.9829 68.4365C55.5281 68.4365 55.1339 68.5473 54.8004 68.7689C54.4729 68.9904 54.2 69.2929 53.9817 69.6761C53.7694 70.0594 53.6087 70.4935 53.4996 70.9786C53.3965 71.4577 53.3449 71.9577 53.3449 72.4787C53.3449 73.1733 53.4389 73.829 53.6269 74.4459C53.821 75.0567 54.1121 75.5567 54.5002 75.9459C54.8944 76.3292 55.3886 76.5208 55.9829 76.5208Z"
        fill="white" />
    <path d="M65.7241 78.7665V68.6701H64.0503L64.7234 66.1909H68.2347V78.7665H65.7241Z" fill="white" />
    <path
        d="M77.0332 79C76.2994 79 75.6293 78.8323 75.0229 78.497C74.4164 78.1556 73.8888 77.6856 73.44 77.0867C72.9973 76.4879 72.6547 75.7962 72.4121 75.0117C72.1695 74.2213 72.0482 73.3769 72.0482 72.4787C72.0482 71.5804 72.1695 70.739 72.4121 69.9546C72.6547 69.1641 72.9973 68.4695 73.44 67.8706C73.8888 67.2718 74.4164 66.8047 75.0229 66.4693C75.6293 66.128 76.2994 65.9573 77.0332 65.9573C77.767 65.9573 78.4371 66.128 79.0436 66.4693C79.65 66.8047 80.1716 67.2718 80.6082 67.8706C81.0509 68.4695 81.3936 69.1641 81.6361 69.9546C81.8787 70.739 82 71.5804 82 72.4787C82 73.3769 81.8787 74.2213 81.6361 75.0117C81.3936 75.7962 81.0509 76.4879 80.6082 77.0867C80.1716 77.6856 79.65 78.1556 79.0436 78.497C78.4371 78.8323 77.767 79 77.0332 79ZM77.0332 76.5208C77.6336 76.5208 78.1278 76.3292 78.516 75.9459C78.9041 75.5627 79.1891 75.0627 79.3711 74.4459C79.5591 73.829 79.6531 73.1733 79.6531 72.4787C79.6531 71.7421 79.553 71.0684 79.3529 70.4576C79.1588 69.8468 78.8677 69.3587 78.4796 68.9934C78.0915 68.6222 77.6093 68.4365 77.0332 68.4365C76.5784 68.4365 76.1842 68.5473 75.8506 68.7689C75.5232 68.9904 75.2503 69.2929 75.0319 69.6761C74.8197 70.0594 74.659 70.4935 74.5498 70.9786C74.4467 71.4577 74.3952 71.9577 74.3952 72.4787C74.3952 73.1733 74.4892 73.829 74.6772 74.4459C74.8712 75.0567 75.1623 75.5567 75.5505 75.9459C75.9446 76.3292 76.4389 76.5208 77.0332 76.5208Z"
        fill="white" />
    <rect x="1" y="16" width="39" height="35" fill="#FF5656" />
    <rect x="16.5059" y="27.3174" width="7.52531" height="20.5956" fill="white" />
    <rect x="7" y="19" width="7.52531" height="28.913" fill="white" />
    <rect x="26.0127" y="34.0507" width="7.52531" height="13.8624" fill="white" />
</svg>