<svg width="151" height="157" viewBox="0 0 151 157" fill="none"
    xmlns="http://www.w3.org/2000/svg">
    <path d="M1.96484 70.0625L33.9648 121.343H85.6353L45.8001 97.0868M1.96484 70.0625L33.9648 16.5625M1.96484 70.0625L45.8001 97.0868M33.9648 16.5625L45.8001 97.0868M33.9648 16.5625L72.4648 52.5624M33.9648 16.5625H72.4648M45.8001 97.0868L72.4648 52.5624M72.4648 52.5624L98.9648 43.5625L115.465 13.5898L72.4648 16.5625M72.4648 52.5624V16.5625" stroke="#111111" stroke-width="2"/>
    <g clip-path="url(#clip0_329_2447)">
        <path d="M132.965 79.084C132.828 73.4594 131.441 68.2674 128.554 63.4171C127.053 60.8894 125.28 58.4073 123.256 56.244C122.892 55.8569 121.892 54.946 121.892 54.946L121.414 42.6494L107.84 46.0651C107.84 46.0651 104.929 44.9721 103.406 44.5394C102.064 44.1751 100.746 43.879 99.3814 43.6513C99.0403 43.583 97.5624 43.4236 97.5624 43.4236L92.9694 38.1861L87.9444 33.0625L83.5333 37.8445L77.6897 44.6305C77.6897 44.6305 75.1886 45.3136 74.3928 45.5869C71.8234 46.4067 69.2086 47.7047 66.9348 49.1165C66.5256 49.367 65.3887 50.0046 65.3887 50.0046L43.7425 50.8016C43.7425 50.8016 49.1768 70.6585 49.3359 71.3416C49.4951 72.1159 48.5401 73.8465 48.3127 74.6435C47.858 76.2375 47.426 77.8543 47.0849 79.4711C46.8575 80.5641 46.1981 83.2056 46.1981 83.2056L32.9648 98.4171L51.8825 108.892C51.8825 108.892 53.0649 110.759 53.4742 111.374C54.3155 112.649 55.1795 113.902 56.1799 115.063C56.9303 115.928 58.4082 118.115 58.4082 118.115L58.772 133.69L77.1895 128.794C77.1895 128.794 79.9635 129.591 80.873 129.819C83.7834 130.548 86.8985 130.935 89.8998 130.981C90.6502 130.981 92.1736 130.981 92.1736 130.981L105.884 138.085L110.796 125.629C110.796 125.629 111.591 125.06 113.115 123.921C115.571 122.077 117.731 119.959 119.618 117.568C120.027 117.067 121.46 114.813 121.551 114.767C121.914 114.585 132.647 110.919 132.647 110.919L126.689 100.603C126.689 100.603 126.644 100.467 126.598 99.5784C126.553 98.5765 126.598 97.5745 126.598 96.5954C126.598 94.136 126.644 91.8589 125.939 89.4678C122.665 78.4236 112.819 70.0209 100.768 69.5199C97.0622 69.3605 93.4241 69.611 90.0135 71.1367C84.7611 73.4822 80.3955 77.7177 78.5083 83.0462C76.9394 87.4867 76.6211 92.7242 78.6902 97.0736C80.9867 101.924 85.4432 105.431 90.9685 106.137C94.1518 106.547 97.1076 106.273 99.586 104.383C100.177 103.951 101.382 102.653 101.382 102.653C101.382 102.653 100.132 102.88 99.2222 103.017C97.6761 103.245 96.3118 103.245 94.7657 103.245C90.6729 103.245 86.8985 101.013 84.8521 97.5745C82.4191 93.4984 83.0558 88.8075 85.5797 84.9135C88.2172 80.8602 92.3555 78.5147 97.2668 78.5147C107.772 78.5147 116.162 88.4431 114.888 98.3715C113.433 109.757 102.974 118.502 91.2413 118.502C76.0754 118.502 60.5001 105.567 60.4091 90.2876C60.3182 77.3306 66.0253 62.6884 79.395 57.7014C83.8744 56.0618 88.4219 54.9233 92.9012 54.9233C99.0858 54.9233 104.657 55.7203 110.341 58.2252C114.729 60.1607 118.231 63.0072 121.528 66.3319C124.87 69.7021 127.531 73.8465 129.509 78.082C130.009 79.1751 130.737 80.6552 131.123 81.4978C131.783 82.9096 132.374 85.2323 132.374 85.2323C132.374 85.2323 133.079 81.3156 132.965 79.084Z" fill="#FF4040"/>
    </g>
    <path fill-rule="evenodd" clip-rule="evenodd" d="M127.079 131.199L118.438 137.991L115.965 134.854L124.606 128.062L127.079 131.199Z" fill="#111111"/>
    <circle cx="123.465" cy="25.5625" r="4.5" stroke="#111111" stroke-width="2"/>
    <path fill-rule="evenodd" clip-rule="evenodd" d="M135.082 141.205L126.439 148.009L123.965 144.866L132.608 138.062L135.082 141.205Z" fill="#111111"/>
    <path fill-rule="evenodd" clip-rule="evenodd" d="M140.861 25.5895L136.662 35.7565L132.965 34.2295L137.164 24.0625L140.861 25.5895Z" fill="#111111"/>
    <defs>
        <clipPath id="clip0_329_2447">
            <rect width="100" height="105" fill="white" transform="translate(32.9648 33.0625)"/>
        </clipPath>
    </defs>
</svg>
