<svg width="1921" height="1081" viewBox="0 0 1921 1081" fill="none"
    xmlns="http://www.w3.org/2000/svg">
    <g clip-path="url(#clip0_329_1309)">
        <rect width="1920" height="1080" transform="matrix(-1 0 0 1 1920.07 0.300781)" fill="#F5F6F9"/>
        <path d="M156.056 378.806L667.821 2093.95L966.58 752.556L156.056 378.806Z" fill="#9D70F9"/>
        <path d="M2153.07 1803.39L2207.76 1248.08L1664.59 427.815L966.568 752.555L2153.07 1803.39Z" fill="#8A5CE9"/>
        <path d="M156.03 378.852L-859.795 1082.91L667.952 2094.03L156.03 378.852Z" fill="#8A5CE9"/>
        <path d="M2153.09 1803.38L966.576 752.559L667.822 2093.96L2153.09 1803.38Z" fill="#9364F4"/>
        <path d="M169.38 128.151L-160.078 0.300995L156.015 378.874L169.38 128.151Z" fill="#9364F4"/>
        <path d="M156.037 378.847L-160.059 0.30882L-1165.25 105.314L-859.798 1082.92L156.037 378.847Z" fill="#A67CFF"/>
        <path d="M1664.47 427.907L169.359 128.093L156.025 378.834L966.586 752.557L1664.47 427.907Z" fill="#A67CFF"/>
        <rect width="24.0853" height="7.51714" transform="matrix(0.866025 0.5 0.5 -0.866025 1726.98 575.626)" fill="#111111"/>
        <path d="M1711.24 626.979C1717 630.305 1724.36 628.331 1727.69 622.571C1731.01 616.812 1729.04 609.446 1723.28 606.121C1717.52 602.795 1710.15 604.769 1706.83 610.529C1703.5 616.289 1705.48 623.654 1711.24 626.979ZM1721.05 609.983C1724.68 612.077 1725.92 616.715 1723.82 620.341C1721.73 623.968 1717.09 625.211 1713.47 623.117C1709.84 621.023 1708.6 616.386 1710.69 612.759C1712.78 609.132 1717.42 607.89 1721.05 609.983Z" fill="#111111"/>
        <rect width="24.0853" height="7.51714" transform="matrix(0.866025 0.5 0.5 -0.866025 1682.91 651.938)" fill="#111111"/>
        <g filter="url(#filter0_d_329_1309)">
            <rect width="64.0577" height="14.6296" transform="matrix(-0.950132 0.311848 0.311848 0.950132 104.053 414.652)" fill="#111111"/>
            <rect width="64.0577" height="14.6296" transform="matrix(0.311848 0.950132 0.950132 -0.311848 58.9668 403.442)" fill="#111111"/>
        </g>
        <g filter="url(#filter1_d_329_1309)">
            <rect width="47.8387" height="10.9255" transform="matrix(-0.950132 0.311848 0.311848 0.950132 1259.88 828.419)" fill="#111111"/>
            <rect width="47.8387" height="10.9255" transform="matrix(0.311848 0.950132 0.950132 -0.311848 1226.21 820.047)" fill="#111111"/>
        </g>
        <g filter="url(#filter2_d_329_1309)">
            <path d="M77.5581 897.598C85.2856 902.06 95.1667 899.412 99.6282 891.684C104.09 883.957 101.442 874.076 93.7145 869.614C85.987 865.153 76.1059 867.801 71.6445 875.528C67.183 883.255 69.8306 893.137 77.5581 897.598ZM90.7227 874.796C95.5883 877.605 97.2554 883.827 94.4462 888.693C91.6371 893.558 85.4155 895.225 80.5499 892.416C75.6843 889.607 74.0173 883.385 76.8264 878.52C79.6355 873.654 85.8571 871.987 90.7227 874.796Z" fill="#111111"/>
        </g>
        <path d="M973.393 168.104L603.131 878.581M973.393 168.104L217.725 426.434M973.393 168.104L1329.18 402.115M603.131 878.581L217.725 426.434M603.131 878.581L252.571 1168.11M603.131 878.581L1081.8 1592.97M603.131 878.581L1251.57 780.633M217.725 426.434L252.571 1168.11M252.571 1168.11L1081.8 1592.97M1329.18 402.115L1251.57 780.633M1329.18 402.115L1888.53 679.357M1251.57 780.633L1081.8 1592.97M1251.57 780.633L1888.53 679.357M1081.8 1592.97L1888.53 679.357" stroke="black" stroke-width="3"/>
        <rect width="9.43306" height="5.43614" transform="matrix(-0.5 0.866025 0.866025 0.5 297.713 345.724)" fill="#111111"/>
        <rect width="9.43306" height="5.43614" transform="matrix(-0.5 0.866025 0.866025 0.5 313.617 354.908)" fill="#111111"/>
        <rect width="23.8028" height="5.43614" transform="matrix(0.866025 0.5 0.5 -0.866025 294.994 350.432)" fill="#111111"/>
        <rect x="280.502" y="375.528" width="9.43306" height="5.43614" transform="rotate(-60 280.502 375.528)" fill="#111111"/>
        <rect x="296.41" y="384.709" width="9.43306" height="5.43614" transform="rotate(-60 296.41 384.709)" fill="#111111"/>
        <rect x="283.223" y="370.821" width="23.8028" height="5.43614" transform="rotate(30 283.223 370.821)" fill="#111111"/>
        <g filter="url(#filter3_d_329_1309)">
            <path d="M1400.82 1023.36L1518.51 990.314L1429.2 904.455L1400.82 1023.36Z" fill="black"/>
        </g>
        <g filter="url(#filter4_d_329_1309)">
            <path d="M1696.85 977.943C1706.52 983.529 1718.9 980.214 1724.48 970.538C1730.07 960.862 1726.75 948.49 1717.08 942.903C1707.4 937.317 1695.03 940.632 1689.44 950.308C1683.86 959.984 1687.17 972.357 1696.85 977.943ZM1713.33 949.392C1719.42 952.909 1721.51 960.7 1717.99 966.792C1714.48 972.884 1706.69 974.972 1700.59 971.454C1694.5 967.937 1692.41 960.147 1695.93 954.054C1699.45 947.962 1707.24 945.874 1713.33 949.392Z" fill="#111111"/>
        </g>
        <path d="M1156.2 701.563C1162.12 704.983 1169.7 702.954 1173.12 697.029C1176.54 691.105 1174.51 683.53 1168.58 680.109C1162.66 676.689 1155.08 678.719 1151.66 684.643C1148.24 690.567 1150.27 698.143 1156.2 701.563ZM1166.29 684.082C1170.02 686.236 1171.3 691.005 1169.14 694.736C1166.99 698.466 1162.22 699.744 1158.49 697.59C1154.76 695.437 1153.48 690.667 1155.64 686.937C1157.79 683.206 1162.56 681.928 1166.29 684.082Z" fill="#111111"/>
        <rect width="24.7727" height="7.73167" transform="matrix(0.866025 0.5 0.5 -0.866025 1127.07 727.237)" fill="#111111"/>
        <path d="M108.747 167.758C102.823 164.338 95.2477 166.368 91.8273 172.292C88.4069 178.216 90.4367 185.792 96.361 189.212C102.285 192.632 109.861 190.603 113.281 184.678C116.701 178.754 114.672 171.179 108.747 167.758ZM98.6547 185.239C94.9245 183.086 93.6464 178.316 95.8001 174.586C97.9537 170.856 102.723 169.577 106.454 171.731C110.184 173.885 111.462 178.655 109.308 182.385C107.155 186.115 102.385 187.393 98.6547 185.239Z" fill="#111111"/>
        <rect width="24.7727" height="7.73167" transform="matrix(-0.866026 -0.5 -0.5 0.866026 137.877 142.084)" fill="#111111"/>
        <g filter="url(#filter5_d_329_1309)">
            <path d="M1733.05 181.988L1769.09 171.868L1741.74 145.573L1733.05 181.988Z" fill="black"/>
        </g>
        <g filter="url(#filter6_d_329_1309)">
            <rect width="21.1532" height="12.1903" transform="matrix(-0.5 0.866025 0.866025 0.5 1251.51 109.103)" fill="#111111"/>
            <rect width="21.1532" height="12.1903" transform="matrix(-0.5 0.866025 0.866025 0.5 1287.17 129.698)" fill="#111111"/>
            <rect width="53.3767" height="12.1903" transform="matrix(0.866025 0.5 0.5 -0.866025 1245.42 119.66)" fill="#111111"/>
            <rect x="1212.92" y="175.939" width="21.1532" height="12.1903" transform="rotate(-60 1212.92 175.939)" fill="#111111"/>
            <rect x="1248.59" y="196.528" width="21.1532" height="12.1903" transform="rotate(-60 1248.59 196.528)" fill="#111111"/>
            <rect x="1219.01" y="165.384" width="53.3768" height="12.1903" transform="rotate(30 1219.01 165.384)" fill="#111111"/>
        </g>
    </g>
    <defs>
        <filter id="filter0_d_329_1309" x="18.1895" y="398.88" width="95.4258" height="100.426" filterUnits="userSpaceOnUse" color-interpolation-filters="sRGB">
            <feFlood flood-opacity="0" result="BackgroundImageFix"/>
            <feColorMatrix in="SourceAlpha" type="matrix" values="0 0 0 0 0 0 0 0 0 0 0 0 0 0 0 0 0 0 127 0" result="hardAlpha"/>
            <feOffset dx="-10" dy="20"/>
            <feGaussianBlur stdDeviation="7.5"/>
            <feComposite in2="hardAlpha" operator="out"/>
            <feColorMatrix type="matrix" values="0 0 0 0 0 0 0 0 0 0 0 0 0 0 0 0 0 0 0.24 0"/>
            <feBlend mode="normal" in2="BackgroundImageFix" result="effect1_dropShadow_329_1309"/>
            <feBlend mode="normal" in="SourceGraphic" in2="effect1_dropShadow_329_1309" result="shape"/>
        </filter>
        <filter id="filter1_d_329_1309" x="1189.43" y="816.64" width="78.8594" height="83.8604" filterUnits="userSpaceOnUse" color-interpolation-filters="sRGB">
            <feFlood flood-opacity="0" result="BackgroundImageFix"/>
            <feColorMatrix in="SourceAlpha" type="matrix" values="0 0 0 0 0 0 0 0 0 0 0 0 0 0 0 0 0 0 127 0" result="hardAlpha"/>
            <feOffset dx="-10" dy="20"/>
            <feGaussianBlur stdDeviation="7.5"/>
            <feComposite in2="hardAlpha" operator="out"/>
            <feColorMatrix type="matrix" values="0 0 0 0 0 0 0 0 0 0 0 0 0 0 0 0 0 0 0.24 0"/>
            <feBlend mode="normal" in2="BackgroundImageFix" result="effect1_dropShadow_329_1309"/>
            <feBlend mode="normal" in="SourceGraphic" in2="effect1_dropShadow_329_1309" result="shape"/>
        </filter>
        <filter id="filter2_d_329_1309" x="44.4766" y="867.447" width="62.3184" height="67.3184" filterUnits="userSpaceOnUse" color-interpolation-filters="sRGB">
            <feFlood flood-opacity="0" result="BackgroundImageFix"/>
            <feColorMatrix in="SourceAlpha" type="matrix" values="0 0 0 0 0 0 0 0 0 0 0 0 0 0 0 0 0 0 127 0" result="hardAlpha"/>
            <feOffset dx="-10" dy="20"/>
            <feGaussianBlur stdDeviation="7.5"/>
            <feComposite in2="hardAlpha" operator="out"/>
            <feColorMatrix type="matrix" values="0 0 0 0 0 0 0 0 0 0 0 0 0 0 0 0 0 0 0.24 0"/>
            <feBlend mode="normal" in2="BackgroundImageFix" result="effect1_dropShadow_329_1309"/>
            <feBlend mode="normal" in="SourceGraphic" in2="effect1_dropShadow_329_1309" result="shape"/>
        </filter>
        <filter id="filter3_d_329_1309" x="1375.82" y="904.455" width="147.693" height="153.903" filterUnits="userSpaceOnUse" color-interpolation-filters="sRGB">
            <feFlood flood-opacity="0" result="BackgroundImageFix"/>
            <feColorMatrix in="SourceAlpha" type="matrix" values="0 0 0 0 0 0 0 0 0 0 0 0 0 0 0 0 0 0 127 0" result="hardAlpha"/>
            <feOffset dx="-10" dy="20"/>
            <feGaussianBlur stdDeviation="7.5"/>
            <feComposite in2="hardAlpha" operator="out"/>
            <feColorMatrix type="matrix" values="0 0 0 0 0 0 0 0 0 0 0 0 0 0 0 0 0 0 0.24 0"/>
            <feBlend mode="normal" in2="BackgroundImageFix" result="effect1_dropShadow_329_1309"/>
            <feBlend mode="normal" in="SourceGraphic" in2="effect1_dropShadow_329_1309" result="shape"/>
        </filter>
        <filter id="filter4_d_329_1309" x="1661.73" y="940.189" width="70.4668" height="75.4678" filterUnits="userSpaceOnUse" color-interpolation-filters="sRGB">
            <feFlood flood-opacity="0" result="BackgroundImageFix"/>
            <feColorMatrix in="SourceAlpha" type="matrix" values="0 0 0 0 0 0 0 0 0 0 0 0 0 0 0 0 0 0 127 0" result="hardAlpha"/>
            <feOffset dx="-10" dy="20"/>
            <feGaussianBlur stdDeviation="7.5"/>
            <feComposite in2="hardAlpha" operator="out"/>
            <feColorMatrix type="matrix" values="0 0 0 0 0 0 0 0 0 0 0 0 0 0 0 0 0 0 0.24 0"/>
            <feBlend mode="normal" in2="BackgroundImageFix" result="effect1_dropShadow_329_1309"/>
            <feBlend mode="normal" in="SourceGraphic" in2="effect1_dropShadow_329_1309" result="shape"/>
        </filter>
        <filter id="filter5_d_329_1309" x="1708.04" y="145.572" width="66.0449" height="71.416" filterUnits="userSpaceOnUse" color-interpolation-filters="sRGB">
            <feFlood flood-opacity="0" result="BackgroundImageFix"/>
            <feColorMatrix in="SourceAlpha" type="matrix" values="0 0 0 0 0 0 0 0 0 0 0 0 0 0 0 0 0 0 127 0" result="hardAlpha"/>
            <feOffset dx="-10" dy="20"/>
            <feGaussianBlur stdDeviation="7.5"/>
            <feComposite in2="hardAlpha" operator="out"/>
            <feColorMatrix type="matrix" values="0 0 0 0 0 0 0 0 0 0 0 0 0 0 0 0 0 0 0.24 0"/>
            <feBlend mode="normal" in2="BackgroundImageFix" result="effect1_dropShadow_329_1309"/>
            <feBlend mode="normal" in="SourceGraphic" in2="effect1_dropShadow_329_1309" result="shape"/>
        </filter>
        <filter id="filter6_d_329_1309" x="1187.92" y="109.103" width="114.82" height="128.526" filterUnits="userSpaceOnUse" color-interpolation-filters="sRGB">
            <feFlood flood-opacity="0" result="BackgroundImageFix"/>
            <feColorMatrix in="SourceAlpha" type="matrix" values="0 0 0 0 0 0 0 0 0 0 0 0 0 0 0 0 0 0 127 0" result="hardAlpha"/>
            <feOffset dx="-10" dy="20"/>
            <feGaussianBlur stdDeviation="7.5"/>
            <feComposite in2="hardAlpha" operator="out"/>
            <feColorMatrix type="matrix" values="0 0 0 0 0 0 0 0 0 0 0 0 0 0 0 0 0 0 0.24 0"/>
            <feBlend mode="normal" in2="BackgroundImageFix" result="effect1_dropShadow_329_1309"/>
            <feBlend mode="normal" in="SourceGraphic" in2="effect1_dropShadow_329_1309" result="shape"/>
        </filter>
        <clipPath id="clip0_329_1309">
            <rect width="1920" height="1080" fill="white" transform="matrix(-1 0 0 1 1920.07 0.300781)"/>
        </clipPath>
    </defs>
</svg>
