<svg width="192" height="192" viewBox="0 0 192 192" fill="none" xmlns="http://www.w3.org/2000/svg">
<circle cx="95.5" cy="95.5" r="82.5" fill="#6133BC"/>
<path d="M111.667 51C114.348 51 116.92 52.0653 118.816 53.9615C120.713 55.8577 121.778 58.4295 121.778 61.1111V80.9259C121.778 81.878 121.508 82.8108 121.001 83.6167C120.494 84.4227 119.77 85.069 118.912 85.4814C118.053 85.8938 117.096 86.0554 116.15 85.9476C115.204 85.8398 114.308 85.4671 113.564 84.8722L96.5 71.2222L114.353 56.9398C113.564 56.388 112.629 56.0806 111.667 56.0556H81.3333C80.3705 56.0806 79.4363 56.388 78.6468 56.9398L96.5 71.2222L79.436 84.8722C78.6925 85.4671 77.7961 85.8398 76.85 85.9476C75.9039 86.0554 74.9466 85.8938 74.0884 85.4814C73.2301 85.069 72.5058 84.4227 71.9987 83.6167C71.4916 82.8108 71.2225 81.878 71.2222 80.9259V61.1111C71.2222 58.4295 72.2875 55.8577 74.1837 53.9615C76.0799 52.0653 78.6517 51 81.3333 51H111.667ZM142 81.3333V131.889C142 134.571 140.935 137.142 139.039 139.039C137.142 140.935 134.571 142 131.889 142H61.1111C58.4295 142 55.8577 140.935 53.9615 139.039C52.0653 137.142 51 134.571 51 131.889V81.3333C51 78.6517 52.0653 76.0799 53.9615 74.1837C55.8577 72.2875 58.4295 71.2222 61.1111 71.2222H68.6944V80.9233C68.6939 82.352 69.097 83.7517 69.8572 84.9614C70.6174 86.171 71.7038 87.1412 72.9914 87.7604C74.2789 88.3795 75.7151 88.6224 77.1346 88.4609C78.5542 88.2995 79.8992 87.7404 81.0148 86.8479L96.5 74.4608L111.988 86.8469C113.103 87.7386 114.448 88.297 115.867 88.4581C117.286 88.6192 118.722 88.3762 120.009 87.7573C121.296 87.1384 122.382 86.1686 123.142 84.9596C123.902 83.7506 124.306 82.3515 124.306 80.9233V71.2222H131.889C134.571 71.2222 137.142 72.2875 139.039 74.1837C140.935 76.0799 142 78.6517 142 81.3333ZM88.8616 83.806L96.5 91.4444L104.138 83.806L96.5 77.6933L88.8616 83.806ZM106.075 109.009L102.118 89.4015L96.5 95.0187L90.8701 89.3899L86.9233 109.01C86.7589 109.827 86.799 110.672 87.04 111.47C87.2809 112.267 87.7153 112.993 88.3044 113.582L94.7124 119.99C94.9471 120.225 95.2258 120.411 95.5325 120.538C95.8392 120.665 96.168 120.731 96.5 120.731C96.832 120.731 97.1608 120.665 97.4675 120.538C97.7742 120.411 98.0529 120.225 98.2876 119.99L104.694 113.584C105.284 112.994 105.718 112.268 105.959 111.47C106.2 110.672 106.24 109.826 106.075 109.009Z" fill="white"/>
<path d="M-1.52588e-05 96.0001C-1.52588e-05 108.607 2.4831 121.09 7.30756 132.738C12.132 144.385 19.2033 154.968 28.1177 163.882C37.0322 172.797 47.6151 179.868 59.2624 184.693C70.9096 189.517 83.3931 192 96 192L81 181.5L96 173.174C85.8653 173.174 75.8299 171.178 66.4666 167.3C57.1034 163.422 48.5957 157.737 41.4294 150.571C34.2631 143.404 28.5785 134.897 24.7001 125.533C20.8218 116.17 18.8256 106.135 18.8256 96.0001L10.5 81L-1.52588e-05 96.0001Z" fill="#111111"/>
<path d="M95.9999 -1.65701e-05C83.393 -1.76723e-05 70.9096 2.4831 59.2623 7.30755C47.6151 12.132 37.0321 19.2033 28.1177 28.1177C19.2033 37.0322 12.1319 47.6151 7.30748 59.2624C2.48302 70.9096 -8.28212e-05 83.3931 -8.39233e-05 96L10.4999 81L18.8255 96C18.8255 85.8653 20.8217 75.8299 24.7001 66.4666C28.5784 57.1034 34.2631 48.5957 41.4294 41.4294C48.5957 34.2631 57.1033 28.5785 66.4666 24.7001C75.8298 20.8218 85.8652 18.8256 95.9999 18.8256L111 10.5L95.9999 -1.65701e-05Z" fill="#A67CFF"/>
<path d="M96.0001 192C108.607 192 121.09 189.517 132.738 184.692C144.385 179.868 154.968 172.797 163.882 163.882C172.797 154.968 179.868 144.385 184.693 132.738C189.517 121.09 192 108.607 192 96L181.5 111L173.174 96C173.174 106.135 171.178 116.17 167.3 125.533C163.422 134.897 157.737 143.404 150.571 150.571C143.404 157.737 134.897 163.421 125.533 167.3C116.17 171.178 106.135 173.174 96.0001 173.174L81 181.5L96.0001 192Z" fill="#A67CFF"/>
<path d="M192 95.9999C192 83.393 189.517 70.9096 184.692 59.2623C179.868 47.615 172.797 37.0321 163.882 28.1177C154.968 19.2032 144.385 12.1319 132.738 7.30747C121.09 2.48302 108.607 -8.3773e-05 96 -8.39233e-05L111 10.4999L96 18.8255C106.135 18.8255 116.17 20.8217 125.533 24.7001C134.897 28.5784 143.404 34.263 150.571 41.4294C157.737 48.5957 163.421 57.1033 167.3 66.4665C171.178 75.8298 173.174 85.8652 173.174 95.9999L181.5 111L192 95.9999Z" fill="#FF5656"/>
</svg>
