<svg width="160" height="160" viewBox="0 0 160 160" fill="none" xmlns="http://www.w3.org/2000/svg">
<path d="M65.2691 123.135L37.1404 95.0064C37.1404 95.0064 38.5146 92.9452 40.9839 89.4737L18.3879 66.8777L55.8929 48.1252L65.7693 58.0016C70.0197 53.1364 69.8921 52.8785 74.6453 48.1252C77.8718 44.8988 81.3647 42.1164 84.9896 39.717C107.7 24.6846 135.591 24.6846 135.591 24.6846C135.591 24.6846 135.591 52.5755 120.558 75.2859C118.159 78.9108 115.377 82.4037 112.15 85.6302C107.397 90.3834 107.139 90.2558 102.274 94.5063L112.15 104.383L93.3978 141.888L70.8019 119.292C67.3303 121.761 65.2691 123.135 65.2691 123.135Z" fill="#FF5656"/>
<path d="M47.3973 134.405C53.3253 128.165 53.1693 118.337 47.0853 112.409C41.0013 106.637 31.4853 106.637 25.4013 112.409C19.1613 118.337 11.3613 148.289 11.3613 148.289C11.3613 148.289 41.3133 140.489 47.3973 134.405Z" fill="#9D70F9"/>
<path d="M47.2415 123.33C49.8935 119.898 49.1135 115.062 45.6815 112.41C42.8735 110.382 39.1295 110.382 36.3215 112.41C33.2015 115.53 28.5215 131.13 28.5215 131.13C28.5215 131.13 44.2775 126.45 47.2415 123.33Z" fill="#FF5656"/>
</svg>
